<svg xmlns="http://www.w3.org/2000/svg" viewBox="0 0 64 64" width="64" height="64">
  <rect width="64" height="64" rx="14" fill="#1c1b18"/>
  <path fill="#c0994f" d="M24 15c-1.6 3.1-4.6 4.9-7.3 7.1-2.9 2.4-4.7 5.4-4.7 9.7 0 1.6.7 2.6 2 3l3.4-3.7c.5-.5 1.3-.1 1.2.6l-.5 3.6c4-1.1 5.4-3.9 6.6-6.4l.7 1.1c-1.6 5.9-5.9 8.4-11.2 9.7-2.4.6-3.5 2.1-3.9 4.2L9.5 49h33l-.6-9c-.5-8-3-13.3-7.2-17.3-2-1.9-3.2-3.9-3.6-6.6-.2-1.4-.6-2.6-1.6-3.6-1.2-1.2-3.4-1.3-4.9.5-.2-.3.6.5.4 2zM25 24a1.7 1.7 0 1 1 0-3.4A1.7 1.7 0 0 1 25 24z"/>
  <rect x="9" y="49" width="34" height="4" rx="1.4" fill="#c0994f"/>
</svg>
